<?xml version="1.0" encoding="UTF-8"?>
<svg id="Layer_1" xmlns="http://www.w3.org/2000/svg" version="1.1" viewBox="0 0 200 200" fill="#FFD89C">
  <!-- Generator: Adobe Illustrator 29.5.1, SVG Export Plug-In . SVG Version: 2.1.0 Build 141)  -->
  <path d="M124.72,56.45h-32.01v39.42h32.01v-39.42ZM105.33,88.37c0,.23-.19.41-.41.41h-6c-.23,0-.41-.19-.41-.41v-6c0-.23.19-.41.41-.41h6c.23,0,.41.19.41.41v6ZM105.33,74.13c0,.23-.19.41-.41.41h-6c-.23,0-.41-.19-.41-.41v-6c0-.23.19-.41.41-.41h6c.23,0,.41.19.41.41v6ZM119.58,88.37c0,.23-.19.41-.41.41h-6c-.23,0-.41-.19-.41-.41v-6c0-.23.19-.41.41-.41h6c.23,0,.41.19.41.41v6ZM119.58,74.13c0,.23-.19.41-.41.41h-6c-.23,0-.41-.19-.41-.41v-6c0-.23.19-.41.41-.41h6c.23,0,.41.19.41.41v6ZM68.07,40.4h-20.76v-15.34c0-.89.53-1.65,1.36-1.96l38.2-14.09c.4-.14.8-.1,1.15.14s.54.61.54,1.02v14.48h-25.61c-.68,0-1.31.29-1.75.74h0c-.45.46-.73,1.09-.73,1.76v6c0,.69.28,1.31.73,1.76.45.45,1.08.73,1.76.73h25.62v3.25h-6.59c-.68,0-1.31.28-1.75.73h0c-.45.46-.73,1.09-.73,1.76v6c0,.69.28,1.31.73,1.76s1.08.73,1.75.73h6.59v3.25h-6.59c-.68,0-1.31.28-1.75.73h0c-.45.46-.73,1.09-.73,1.76v6c0,.69.28,1.31.73,1.76s1.08.73,1.75.73h6.59v3.25h-6.59c-.68,0-1.31.28-1.75.73h0c-.45.46-.73,1.09-.73,1.76v6c0,.69.28,1.31.73,1.76.45.45,1.08.73,1.75.73h6.59v17.49h-13.39v-48.4c0-3.9-3.18-7.08-7.08-7.08h0ZM199.91,102.13v8.32c0,2.76-1.93,5.07-4.65,5.57l-11.89,2.16c-2.18.4-3.84,1.91-4.43,4.04-1.78,6.35-4.3,12.39-7.47,18.02-1.09,1.94-.98,4.17.28,5.99l6.89,9.94c1.57,2.26,1.3,5.27-.65,7.22l-14.71,14.71c-1.95,1.95-4.95,2.23-7.22.65l-9.95-6.89c-1.82-1.26-4.07-1.37-5.99-.28-5.63,3.17-11.66,5.7-18.01,7.47-2.14.6-3.64,2.26-4.04,4.43l-2.16,11.89c-.49,2.72-2.8,4.65-5.57,4.65h-20.8c-2.76,0-5.07-1.93-5.57-4.65l-2.16-11.89c-.4-2.18-1.91-3.84-4.04-4.43-6.35-1.78-12.39-4.3-18.02-7.47-1.94-1.09-4.17-.98-5.99.28l-9.94,6.89c-2.26,1.57-5.27,1.3-7.22-.65l-14.71-14.71c-1.95-1.95-2.23-4.95-.65-7.22l6.89-9.95c1.26-1.82,1.37-4.07.28-5.99-3.17-5.63-5.7-11.66-7.47-18.01-.6-2.14-2.26-3.64-4.43-4.04l-11.89-2.16c-2.72-.49-4.65-2.8-4.65-5.57v-8.32c0-1.15.93-2.08,2.08-2.08h50.13c0,26.38,21.38,47.76,47.76,47.76s47.76-21.38,47.76-47.76h50.13c1.11,0,2.04.93,2.04,2.08h0ZM70.98,47.48c0-1.61-1.31-2.92-2.92-2.92h-32.21c-1.61,0-2.92,1.31-2.92,2.92v48.4h38.05v-48.4ZM62.5,88.37c0,.23-.19.41-.41.41h-20.25c-.23,0-.41-.19-.41-.41v-6c0-.23.19-.41.41-.41h20.25c.23,0,.41.19.41.41v6ZM62.5,74.13c0,.23-.19.41-.41.41h-20.25c-.23,0-.41-.19-.41-.41v-6c0-.23.19-.41.41-.41h20.25c.23,0,.41.19.41.41v6ZM62.5,59.89c0,.23-.19.41-.41.41h-20.25c-.23,0-.41-.19-.41-.41v-6c0-.23.19-.41.41-.41h20.25c.23,0,.41.19.41.41v6ZM83.63,71.56h4.92v2.67h-4.92v-2.67ZM147.1,16.31c.47-.4,1.16-.4,1.63,0l9,7.71c.48.41.73.95.73,1.58v2.13h-21.08v-2.13c0-.63.25-1.18.73-1.58l8.98-7.71ZM64.61,28.82h23.95v2.67h-23.95v-2.67ZM124.72,34.81c0-3.9,3.18-7.08,7.08-7.08h1.4v-2.13c0-1.85.78-3.55,2.18-4.74l9-7.71c1.01-.87,2.27-1.3,3.53-1.3V2.99c0-1.61-1.31-2.92-2.92-2.92h-31.27c-1.61,0-2.92,1.31-2.92,2.92v49.3h13.92v-17.48ZM118.82,12.48v-6c0-.23.19-.41.41-.41h20.25c.23,0,.41.19.41.41v6c0,.23-.19.41-.41.41h-20.25c-.23,0-.41-.18-.41-.41ZM83.63,43.07h4.92v2.67h-4.92v-2.67ZM62.65,100.04h74.57c0,20.59-16.69,37.29-37.29,37.29s-37.29-16.69-37.29-37.29h0ZM83.63,57.31h4.92v2.67h-4.92v-2.67ZM128.89,34.81v61.06h38.05v-61.06c0-1.61-1.32-2.92-2.93-2.92h-32.21c-1.6,0-2.91,1.32-2.91,2.92h0ZM151.62,38.8c0-.23.19-.41.41-.41h6c.23,0,.41.19.41.41v6c0,.23-.19.41-.41.41h-6c-.23,0-.41-.19-.41-.41v-6ZM151.62,53.47c0-.23.19-.41.41-.41h6c.23,0,.41.19.41.41v6c0,.23-.19.41-.41.41h-6c-.23,0-.41-.19-.41-.41v-6ZM151.62,67.71c0-.23.19-.41.41-.41h6c.23,0,.41.19.41.41v6c0,.23-.19.41-.41.41h-6c-.23,0-.41-.19-.41-.41v-6ZM151.62,82.37c0-.23.19-.41.41-.41h6c.23,0,.41.19.41.41v6c0,.23-.19.41-.41.41h-6c-.23,0-.41-.19-.41-.41v-6ZM137.38,38.8c0-.23.19-.41.41-.41h6c.23,0,.41.19.41.41v6c0,.23-.19.41-.41.41h-6c-.23,0-.41-.19-.41-.41v-6ZM137.38,53.47c0-.23.19-.41.41-.41h6c.23,0,.41.19.41.41v6c0,.23-.19.41-.41.41h-6c-.23,0-.41-.19-.41-.41v-6ZM137.38,67.71c0-.23.19-.41.41-.41h6c.23,0,.41.19.41.41v6c0,.23-.19.41-.41.41h-6c-.23,0-.41-.19-.41-.41v-6ZM137.38,82.37c0-.23.19-.41.41-.41h6c.23,0,.41.19.41.41v6c0,.23-.19.41-.41.41h-6c-.23,0-.41-.19-.41-.41v-6Z"/>
</svg>