<?xml version="1.0" encoding="UTF-8"?>
<svg id="Layer_1" xmlns="http://www.w3.org/2000/svg" version="1.1" viewBox="0 0 200 200" fill="#F68A8A">
  <path d="M199.92,197.56c0,1.34-1.09,2.44-2.44,2.44H2.44c-1.34,0-2.44-1.09-2.44-2.44s1.09-2.44,2.44-2.44h195.04c1.34,0,2.44,1.09,2.44,2.44ZM.96,159.24c6.91,5.26,17.72,5.26,24.63,0h0c5.07-3.88,13.63-3.88,18.7,0h0c6.91,5.26,17.71,5.26,24.62,0,0,0,0,0,0,0,5.07-3.88,13.63-3.88,18.7,0h0c6.9,5.26,17.71,5.26,24.61,0,0,0,0,0,0,0,5.07-3.88,13.63-3.88,18.71,0h0c6.91,5.26,17.72,5.26,24.63,0h0c5.07-3.89,13.64-3.89,18.71,0,0,0,0,0,0,0,3.45,2.63,7.88,3.94,12.3,3.94s8.86-1.32,12.31-3.95c1.07-.82,1.28-2.34.46-3.41-.82-1.08-2.34-1.28-3.42-.46-5.07,3.86-13.65,3.86-18.72,0-6.91-5.28-17.71-5.28-24.62,0-1.93,1.48-4.36,2.38-6.92,2.73v-20.05c19.97-1.26,35.85-17.94,35.85-38.2,0-.94-.04-1.83-.09-2.5-.07-1.28-1.15-2.29-2.43-2.29h0c-14.31.05-26.79,8.01-33.32,19.71v-19.9c19.97-1.25,35.85-17.93,35.85-38.19,0-.95-.04-1.83-.09-2.5-.07-1.28-1.15-2.29-2.43-2.29h0c-14.3.05-26.79,8.01-33.32,19.71v-13.42c9.7-6.16,15.66-16.95,15.66-28.49s-6.47-23.21-16.89-29.23c-.75-.43-1.68-.43-2.44,0-10.41,6.02-16.88,17.22-16.88,29.23s5.96,22.34,15.66,28.5v13.25c-1.72-3.05-3.84-5.83-6.3-8.3-6.92-6.93-16.49-11.23-27.03-11.25-1.29,0-2.36,1.01-2.44,2.29-.04.67-.09,1.56-.09,2.5,0,20.28,15.87,36.94,35.85,38.2v19.71c-1.72-3.05-3.84-5.83-6.3-8.3-6.92-6.93-16.49-11.23-27.03-11.25-1.29,0-2.36,1.01-2.44,2.29-.04.67-.09,1.56-.09,2.5,0,20.28,15.87,36.94,35.85,38.2v20.05c-2.56-.35-5-1.26-6.92-2.72-3.45-2.64-7.88-3.97-12.31-3.97s-8.86,1.32-12.31,3.97c-5.08,3.86-13.65,3.86-18.72,0-6.91-5.28-17.72-5.27-24.62,0-1.93,1.47-4.36,2.38-6.92,2.72v-20.05c19.97-1.26,35.85-17.94,35.85-38.2,0-.94-.05-1.83-.09-2.5-.08-1.28-1.15-2.29-2.43-2.29h0c-14.3.05-26.79,8.01-33.32,19.71v-19.9c19.97-1.25,35.85-17.93,35.85-38.19,0-.95-.05-1.83-.09-2.5-.08-1.28-1.15-2.29-2.43-2.29h0c-14.3.05-26.79,8.01-33.32,19.71v-13.42c9.69-6.16,15.66-16.95,15.66-28.5S68.21,6.46,57.81.44c-.75-.43-1.68-.43-2.44,0-10.41,6.02-16.89,17.22-16.89,29.23s5.96,22.34,15.66,28.49v13.26c-6.57-11.64-19.05-19.52-33.32-19.53-1.28,0-2.36,1.01-2.43,2.29-.04.67-.09,1.56-.09,2.5,0,20.28,15.87,36.94,35.85,38.2v19.71c-6.57-11.64-19.05-19.52-33.32-19.54-1.28,0-2.36,1.01-2.43,2.29-.04.67-.09,1.56-.09,2.5,0,20.28,15.87,36.94,35.85,38.2v20.05c-2.56-.35-4.99-1.26-6.92-2.72-3.45-2.64-7.88-3.97-12.31-3.97s-8.86,1.32-12.31,3.97c-5.08,3.86-13.64,3.86-18.72,0-1.07-.82-2.6-.61-3.41.46-.82,1.07-.61,2.59.46,3.41h0ZM197.48,177.45H2.44C1.09,177.45,0,178.54,0,179.89s1.09,2.44,2.44,2.44h195.04c1.34,0,2.44-1.09,2.44-2.44s-1.09-2.44-2.44-2.44Z"/>
</svg>