<?xml version="1.0" encoding="UTF-8"?>
<svg id="Layer_1" xmlns="http://www.w3.org/2000/svg" version="1.1" viewBox="0 0 200 200" fill="#5192E2">
  <path d="M93.42,11.29c-16.73.44-30,14.82-30,31.94-.02,3.88,3.12,7.04,7,7.05.02,0,.04,0,.05,0,3.88,0,7.02-3.16,7.01-7.04,0,0,0,0,0-.01,0-10.15,7.61-17.89,16.74-17.89s16.69,7.73,16.69,17.89-7.56,17.94-16.69,17.94H8.99c-3.86.02-6.98,3.14-7,7-.02,3.88,3.12,7.04,7,7.05h85.23c17.1,0,30.76-14.61,30.76-31.99s-13.66-31.94-30.76-31.94c-.27,0-.53,0-.8,0ZM167.84,43.12c-17.1,0-30.74,14.55-30.74,31.94-.02,3.88,3.12,7.04,7,7.05h0c3.88.02,7.04-3.12,7.05-7,0-.02,0-.04,0-.05,0-10.15,7.56-17.87,16.69-17.87s16.75,7.72,16.75,17.87-7.62,17.94-16.75,17.94H8.99c-3.86.02-6.98,3.14-7,7-.02,3.88,3.12,7.04,7,7.05h158.86c17.1,0,30.8-14.61,30.8-31.99s-13.7-31.94-30.8-31.94ZM8.99,124.78c-3.88.02-7.01,3.17-7,7.05h0c.02,3.86,3.14,6.98,7,7h99.24c9.13,0,16.75,7.79,16.75,17.94s-7.62,17.89-16.75,17.89-16.69-7.73-16.69-17.89c.02-3.88-3.12-7.04-7-7.05-.02,0-.04,0-.05,0-3.88.02-7.01,3.17-7,7.05h0c0,17.39,13.64,31.94,30.74,31.94s30.8-14.55,30.8-31.94-13.47-31.74-30.37-31.98c-.14,0-.28-.01-.43-.01H8.99Z"/>
</svg>