<svg xmlns="http://www.w3.org/2000/svg" width="344" height="117" fill="none">
  <g clip-path="url(#a)">
    <path fill="#ffffff" d="M70.318 21.175h7.747l18.498 41.74h-10.57l-3.664-8.844H65.813l-3.544 8.843H51.94zM73.92 33.32l-5.165 12.97h10.39zM104.791 21.175h9.369v33.25h17.358v8.49h-26.726zM140.164 21.175h9.369v41.74h-9.369zM175.657 21.175h7.748l18.498 41.74h-10.571l-3.663-8.844h-16.517l-3.543 8.843h-10.33zm3.604 12.145-5.165 12.97h10.39zM209.77 21.175h12.732l18.078 29.006h.12V21.175h9.369v41.74h-12.252L219.259 33.2h-.12v29.713h-9.369zM260.1 54.427l21.561-25.115H260.88v-8.135h32.131v8.135l-21.14 25.115h21.861v8.489H260.1zM317.755 21.175h7.747L344 62.915h-10.57l-3.663-8.844H313.25l-3.543 8.843h-10.33zm3.603 12.145-5.166 12.97h10.391z"/>
    <path fill="#CF1020" d="M62.61 95.825q-2.832 0-4.992-1.292-2.16-1.291-3.362-3.594t-1.201-5.364 1.2-5.35q1.202-2.29 3.363-3.581t4.992-1.292q3.176 0 5.478 1.558 2.304 1.56 3.304 4.284l-3.49 1.263q-.63-1.713-1.989-2.668t-3.303-.955q-1.774 0-3.104.815-1.33.814-2.031 2.316t-.701 3.609.701 3.622q.7 1.517 2.031 2.332 1.33.813 3.104.814 1.945 0 3.303-.955 1.359-.954 1.989-2.668l3.49 1.236q-1.003 2.723-3.303 4.296-2.303 1.573-5.48 1.574M84.323 95.825q-2.832 0-4.992-1.278-2.16-1.277-3.362-3.58t-1.201-5.364q0-3.09 1.2-5.392 1.202-2.303 3.363-3.581 2.16-1.277 4.992-1.277 2.86 0 5.02 1.277 2.16 1.278 3.362 3.58t1.201 5.393q0 3.06-1.215 5.364-1.217 2.302-3.377 3.58-2.16 1.277-4.991 1.278m-.029-3.482q1.83 0 3.132-.828 1.301-.829 2.017-2.346.716-1.516.716-3.566 0-2.079-.716-3.595t-2.017-2.346q-1.302-.828-3.132-.828-1.745 0-3.075.814-1.33.815-2.031 2.33-.701 1.518-.701 3.624 0 2.078.7 3.594.702 1.517 2.032 2.332 1.33.814 3.075.815M95.767 95.376l8.01-19.574h2.775l8.009 19.574h-4.033l-5.322-14.21-5.407 14.21zm5.264-3.82 1.144-3.257h6.008l1.201 3.257zM126.004 95.825q-2.832 0-4.992-1.292-2.159-1.291-3.362-3.594-1.201-2.303-1.201-5.364t1.201-5.35q1.203-2.29 3.362-3.581 2.16-1.291 4.992-1.292 3.176 0 5.479 1.558 2.303 1.56 3.304 4.284l-3.491 1.263q-.63-1.713-1.988-2.668-1.36-.955-3.304-.955-1.773 0-3.103.815-1.33.814-2.031 2.316-.703 1.502-.702 3.609 0 2.106.702 3.622.7 1.517 2.031 2.332 1.33.813 3.103.814 1.945 0 3.304-.955 1.359-.954 1.988-2.668l3.491 1.236q-1.003 2.723-3.304 4.296-2.303 1.573-5.479 1.574M138.965 95.376V75.802h3.69v7.835h8.611v-7.835h3.691v19.574h-3.691v-8.397h-8.611v8.397zM160.221 95.376V75.802h13.274v3.257h-9.584v4.662h8.954v3.229h-8.954v5.168h9.584v3.257zM178.188 95.376V75.802h3.69V92.12h8.497v3.257zM194.035 95.376V75.802h3.691V92.12h8.496v3.257zM208.196 95.376l8.01-19.574h2.775l8.01 19.574h-4.033l-5.322-14.21-5.407 14.21h-4.034zm5.265-3.82 1.144-3.257h6.007l1.202 3.257zM245.788 95.376l-7.981-19.574h4.062l5.921 15.108h-1.172l5.807-15.108h4.091l-7.953 19.574zM255.971 95.376l8.01-19.574h2.775l8.009 19.574h-4.033l-5.321-14.21-5.407 14.21zm5.264-3.82 1.144-3.257h6.008l1.201 3.257h-8.354zM278.371 95.376V75.802h3.691V92.12h8.496v3.257zM294.221 95.376V75.802h3.69V92.12h8.497v3.257zM310.068 95.376V75.802h13.275v3.257h-9.584v4.662h8.954v3.229h-8.954v5.168h9.584v3.257zM333.241 95.376v-7.667l-7.009-11.907h4.234l4.52 8.313 4.692-8.313h4.205l-6.951 11.907v7.667z"/>
    <path fill="#ffffff" d="M44.985 115.561c-1.497-5.097-2.696-10.269-4-15.415a9300 9300 0 0 1-5.295-21.03c-2.114-8.433-4.205-16.874-6.342-25.303-.23-.906-.16-1.649.31-2.467 3.032-5.272 6.019-10.569 9.03-15.852.276-.483.406-.904.16-1.474a1841 1841 0 0 1-6.13-14.468c-.268-.64-.637-1.022-1.368-.927-1.143.15-2.704-.322-2.56-1.33.252-1.789-.265-2.645-2.001-3.144-.29-.083-.56-.248-.819-.406-1.056-.642-2.674-.63-3.844-.196-1.77.655-2.41.534-4.309.721-1.605.158-2.607.255-3.495.824-.452.29-1.058 1.12-1.4 1.53-.322.386-.769.592-1.32.683-.718.117-2.08.055-3.092.615-1.214.672-2.3 2.862-3.5 3.873-1.309 1.101-2.491 2.346-3.785 3.467-.75.65-1.007 1.396-1.102 2.36-.377 3.794.25 9.799.083 11.389-.22 2.111 2.361 6.255 3.224 9.329C4.82 53.3 5.707 58.397 6.266 63.534c.575 5.277 1.216 10.547 1.836 15.82.88 7.478 1.767 14.954 2.649 22.431.361 3.066.709 6.135 1.081 9.2.081.669.311 1.324 1.177 1.237.944-.096.809-.945.803-1.626a9 9 0 0 0-.02-.525c-.328-5.457-.654-10.914-.986-16.37-.538-8.833-1.056-17.666-1.632-26.497-.244-3.746-.667-7.48-.914-11.227-.07-1.078.554-1.689 1.19-2.343.378-.39.582-.087.71.293q.411 1.233.84 2.46c.097.278.15.65.559.604.47-.05.46-.452.444-.788-.06-1.24-.17-2.48-.206-3.72-.024-.825-.382-1.317-1.176-1.6-1.476-.528-2.92-1.138-4.397-1.662-.811-.288-1.328-.755-1.665-1.559-.962-2.291-1.87-4.62-3.053-6.802-1.12-2.065-.583-4.19-.698-6.296a.5.5 0 0 1 .179-.369.223.223 0 0 1 .352.14c.13.787.798.935 1.398 1.168.305.118.61.255.232.61-.228.213-.803.212-.634.65.186.48.728.303 1.128.289 1.88-.062 3.758-.16 5.637-.21.385-.011.917-.268 1.136.194.178.373-.261.657-.479.951q-.876 1.189-1.767 2.367c-.232.307-.554.671-.26 1 .363.408.766.067 1.108-.179 1.704-1.218 3.405-2.441 5.113-3.654.234-.166.46-.492.798-.292.416.246.149.615.052.906-.557 1.68-1.163 3.344-1.697 5.032-.176.554-.873 1.361-.139 1.68.758.33.912-.733 1.179-1.235 1.63-3.076 3.175-6.203 6.49-7.95.235-.125.48-.266.656-.456 1.21-1.309 2.634-1.644 4.354-1.108.532.166 1.33.517 1.69-.124.29-.52-.468-.848-.77-1.253-.322-.43-.288-.692.315-.696.538-.004 1.074.024 1.611.026.385.002.806.02 1.03-.36.245-.42-.103-.706-.336-.99-.287-.353-.598-.686-.901-1.026q-1.87-2.09-.564-4.567c.153-.291.558-.592.189-1.001-.354-.392-.729-.083-1.054.017-.835.259-1.609.654-2.546.272-2.3-.936-4.628-1.811-6.945-2.708-.456-.177-.836-.38-.697-.98.138-.602.51-.76 1.207-.699 3.12.277 6.26.183 9.393.072 1.057-.038 1.68.254 2.086 1.213.49 1.158 1.022 2.297 1.69 3.366 1.307 2.096 1.983 4.369 2.284 6.769.084.669.19 1.299-.306 1.927a2634 2634 0 0 0-12.606 16.12c-.495.638-.953.712-1.659.41-1.65-.706-3.32-1.365-4.993-2.016-.394-.153-.876-.505-1.23.047-.338.527.233.858.476 1.219.588.876 1.302 1.658 2.078 2.378.617.572.883 1.152.875 1.942-.023 2.447.017 4.896.003 7.344-.01 1.472-.055 2.956.351 4.38 1.48 5.177 3 10.342 4.526 15.506.115.39.163 1.023.84.82.553-.165.378-.681.304-1.068-.856-4.511-1.734-9.02-2.591-13.532-.26-1.365-.768-2.766-.646-4.106.264-2.917.859-5.806 1.33-8.705.039-.24.03-.563.374-.621.366-.062.424.25.517.487 1.5 3.822 3.211 7.58 4.455 11.48 3.661 11.48 7.135 23.016 10.687 34.53 1.654 5.362 3.331 10.717 4.972 16.083.236.769.697 1.085 1.44.889.783-.207.629-.817.463-1.383zm-35.6-82.706q-.695.395-1.386.799c-.455.265-.776.118-1.074-.277a942 942 0 0 0-4.408-5.784c-.262-.341-.363-.648-.02-.994 1.071-1.079 2.135-2.164 3.205-3.244.078-.079.18-.136.266-.2.323-.02.385.247.457.43 1.1 2.805 2.182 5.617 3.277 8.424.153.392.03.65-.318.847zm4.443-.385c-2.037.015-2.852-.543-3.574-2.422-.783-2.037-1.482-4.114-2.404-6.089-.558-1.197-.276-2.065.294-3.13.695-1.306 1.508-2.206 3.107-2.245.505-.013.77.06.927.562 1.145 3.664 2.327 7.317 3.462 10.983.247.798-.998 2.335-1.812 2.341m5.121-14.031c-1.6-.06-1.495 1.208-1.717 2.167-.364 1.569-.372 1.692 1.2 2.166 1.665.503 2.555 1.49 2.794 3.135.042.296.141.585.228.873q.594 1.965-1.187 3.02c-1.14.675-3.36-.023-3.784-1.316-1.03-3.15-1.963-6.329-2.923-9.5-.237-.782.46-1.22.746-1.81.581-1.204 1.44-1.935 2.918-1.663.444.02 1.056-.354 1.346.205.398.768.554 1.63.6 2.496.005.076-.146.23-.22.227m4.374.16-.23-.014c-2.211-.115-2.178-.116-2.225-2.323-.014-.7.229-1.033.89-1.178.631-.136 1.25-.328 1.88-.476 1.155-.27 2.092.435 2.143 1.598.106 2.442.055 2.492-2.46 2.39z"/>
    <path fill="#ffffff" d="M12.175 16.423c.39-.063.766-.196 1.118-.372 1.224-.61 4.438-2.154 5.932-2.284l1.865-.162V12.26h-1.482S16.023.562 10.869.003a.47.47 0 0 0-.456.227c-.586 1.028-2.613 5.027-.238 7.453 0 0-3.29 1.883-2.904 5.69.147 1.456 1.173 2.712 2.626 3.033.607.135 1.356.167 2.279.017"/>
    <path fill="#ffffff" d="m19.824 12.626-.22-.134c.978-1.553 5.146-2.543 5.307-2.462.058.03.089.196.054.25-.023.035-4.22.886-5.14 2.346"/>
    <path fill="#ffffff" d="m20.578 12.65-.181-.182c1.273-1.22 3.543-1.309 3.653-1.239.005.004.026.26.026.26-.026.01-2.293.007-3.498 1.161"/>
    <path fill="#CF1020" d="m17.776 12.979.984-.394a.07.07 0 0 0 .043-.09c-.153-.437-1.096-3.055-2.649-5.513-1.54-2.438-3.53-.769-3.892-.432-.022.02-.06.006-.06-.025-.006-.273 0-1.196.277-1.966.328-.914-.22-2.099-1.207-1.076-.987 1.022-.768-.395-.768-.395s.053-.379-.232-.419c-.283-.04-1.821 3.41 1.773 5.392.017.01.012.037-.01.034-.518-.076-2.826-.205-3.653 3.261-.468 1.958.147 3.056.878 3.666.7.584 1.653.785 2.552.605.995-.2 2.67-.723 4.613-2.09 0 0 .366-4.493-2.499-3.383-2.864 1.11-3.311 4.142-3.311 4.142s.326-5.237 4.774-5.086c0 0 1.706-.09 2.284 3.71a.074.074 0 0 0 .1.059z"/>
  </g>
  <defs>
    <clipPath id="a">
      <path fill="#fff" d="M0 0h344v117H0z"/>
    </clipPath>
  </defs>
</svg>
