<?xml version="1.0" encoding="UTF-8"?>
<svg id="Layer_1" xmlns="http://www.w3.org/2000/svg" version="1.1" viewBox="0 0 200 200" fill="#469065">
  <path d="M192.23,156.06v-28.6c0-2.34-1.9-4.26-4.26-4.26h-74.43c-2.36,0-4.26,1.91-4.26,4.26v28.6c-4.53,1.72-7.79,6.11-7.79,11.24s3.26,9.53,7.79,11.25v10.32c0,2.36,1.9,4.26,4.26,4.26h12.11c2.36,0,4.26-1.9,4.26-4.26v-9.53h41.71v9.53c0,2.36,1.9,4.26,4.26,4.26h12.11c2.36,0,4.26-1.9,4.26-4.26v-10.32c4.53-1.72,7.76-6.11,7.76-11.25s-3.23-9.51-7.76-11.24h-.01ZM117.8,131.72h65.92v7.53h-65.92v-7.53ZM117.8,147.76h65.92v7.51h-65.92v-7.51ZM121.4,184.62h-3.6v-5.28h3.6v5.28ZM183.71,184.62h-3.6v-5.28h3.6v5.28Z"/>
  <path d="M120.23,91.83c-.66-6.08-3.41-11.05-7.94-14.43,2.58-3.23,4.66-7.02,5.51-12.4.53-4.53.75-10.42-2.32-15.49-4.34-7.94-15.09-11.73-24.62-11.58.85-11.55-4.34-18.24-7.85-21.36-5.7-5.13-11.73-9.7-22.32-9.7h-.9c-10.68,0-16.71,4.57-22.42,9.7-3.51,3.13-8.7,9.81-7.85,21.36-9.55-.12-20.26,3.62-24.55,11.43-3.13,5.21-2.92,11.1-2.36,15.81.85,5.28,2.92,9.02,5.49,12.23-4.55,3.41-7.28,8.36-7.94,14.43-.98,8.93,2.88,19.49,9.57,26.17,8.47,8.7,22.11,12.93,35.81,11.44l-1,59.36c-.02,1.15.41,2.24,1.21,3.07.81.81,1.9,1.26,3.04,1.26h22.79c1.15,0,2.24-.45,3.04-1.26.81-.83,1.23-1.91,1.21-3.07l-1-59.34c1.81.19,3.62.3,5.4.3,11.81,0,23.04-4.21,30.39-11.73,6.72-6.72,10.57-17.28,9.6-26.21h0ZM67.27,184.62h-14.15l1.21-71.85c.02-.94-.27-1.87-.85-2.62l-13.56-18.06c.9-.75,1.72-1.53,2.49-2.39l14.81,14.39s.02.02.04.02c.81.79,1.87,1.19,2.93,1.19s2.13-.41,2.96-1.21l14.81-14.39c.76.85,1.6,1.64,2.49,2.39l-13.56,18.06c-.57.75-.87,1.68-.85,2.62l1.21,71.85h-.02Z"/>
  <path d="M161.89,95.04c0,9.28-4.15,17.92-11.43,23.71-.76.62-1.7.94-2.66.94s-1.87-.32-2.63-.94c-7.28-5.78-11.44-14.43-11.44-23.71s4.17-17.92,11.44-23.71c1.55-1.23,3.75-1.26,5.29,0,7.28,5.78,11.43,14.43,11.43,23.71Z"/>
  <path d="M191.11,61.02c-5.73,5.74-13.38,8.88-21.39,8.88-1.15,0-2.29-.07-3.47-.19-1.96-.22-3.51-1.79-3.75-3.75-1.04-9.23,2.13-18.3,8.68-24.85,6.57-6.57,15.64-9.72,24.85-8.68,1.98.22,3.53,1.76,3.75,3.75,1.04,9.23-2.1,18.3-8.68,24.85h0Z"/>
  <path d="M147.27,58.89c-8,0-15.64-3.13-21.39-8.88-6.55-6.55-9.72-15.62-8.68-24.85.23-1.96,1.79-3.53,3.77-3.75,9.21-1.04,18.28,2.13,24.84,8.68,6.57,6.55,9.74,15.62,8.68,24.85-.22,1.98-1.76,3.53-3.75,3.75-1.15.12-2.32.19-3.47.19h0Z"/>
  <path d="M28.8,160.3c-5.74,5.73-13.38,8.88-21.39,8.88-1.15,0-2.32-.07-3.47-.19-1.98-.23-3.53-1.79-3.75-3.75-1.04-9.23,2.1-18.3,8.68-24.85,6.55-6.57,15.62-9.72,24.85-8.68,1.96.22,3.51,1.76,3.75,3.75,1.04,9.23-2.13,18.28-8.68,24.85h0Z"/>
</svg>